<svg width="252" height="190" viewBox="0 0 252 190" fill="none" xmlns="http://www.w3.org/2000/svg">
<g clip-path="url(#clip0_902_498)">
<path d="M178.562 73.5564H157.037V87.2703H178.562V73.5564Z" fill="#21B6A8"/>
<path d="M145.022 95H123.497V108.714H145.022V95Z" fill="#21B6A8"/>
<path d="M241.488 78.0446V48.8714H225.218V29.9213H214.205V48.8714H197.936V78.0446H188.926V12.4672H170.654V6.2336H146.375V0H122.347V6.2336H99.5703V12.4672H79.797V77.7953H69.2846V48.622H53.0154V29.6719H42.0024V48.622H25.7332V77.7953H15.2208V181.273H39.2492V144.619H55.7686V181.273H120.345V138.635H148.378V181.273H187.424V181.522H211.452V144.869H227.972V181.522H252V78.0446H241.488ZM23.856 90.5118H33.3672V97.9921H23.856V90.5118ZM23.9812 111.457H33.4924V118.937H23.9812V111.457ZM33.6175 139.882H24.1063V132.402H33.6175V139.882ZM58.5219 72.3097H36.4959V67.8215H58.5219V72.3097ZM58.5219 65.8268H36.4959V61.3386H58.5219V65.8268ZM58.5219 59.3438H36.4959V54.8556H58.5219V59.3438ZM61.6506 90.5118H71.1618V97.9921H61.6506V90.5118ZM61.7757 111.457H71.2869V118.937H61.7757V111.457ZM71.4121 139.882H61.9009V132.402H71.4121V139.882ZM110.333 127.415H92.8123V119.685H110.333V127.415ZM110.333 105.223H92.8123V97.4934H110.333V105.223ZM110.333 83.0315H92.8123V75.3018H110.333V83.0315ZM110.333 60.8399H92.8123V53.1102H110.333V60.8399ZM110.333 38.6483H92.8123V30.9186H110.333V38.6483ZM143.122 127.415H125.601V119.685H143.122V127.415ZM143.122 105.223H125.601V97.4934H143.122V105.223ZM143.122 83.0315H125.601V75.3018H143.122V83.0315ZM143.122 60.8399H125.601V53.1102H143.122V60.8399ZM143.122 38.6483H125.601V30.9186H143.122V38.6483ZM175.91 127.415H158.39V119.685H175.91V127.415ZM175.91 105.223H158.39V97.4934H175.91V105.223ZM175.91 83.0315H158.39V75.3018H175.91V83.0315ZM175.91 60.8399H158.39V53.1102H175.91V60.8399ZM175.91 38.6483H158.39V30.9186H175.91V38.6483ZM196.059 90.7612H205.57V98.2415H196.059V90.7612ZM196.184 111.706H205.695V119.186H196.184V111.706ZM205.821 140.131H196.309V132.651H205.821V140.131ZM230.725 72.5591H208.699V68.0709H230.725V72.5591ZM230.725 66.0761H208.699V61.5879H230.725V66.0761ZM230.725 59.5932H208.699V55.105H230.725V59.5932ZM233.854 90.7612H243.365V98.2415H233.854V90.7612ZM233.979 111.706H243.49V119.186H233.979V111.706ZM243.615 140.131H234.104V132.651H243.615V140.131Z" fill="#4B4B4B"/>
<path d="M30.0354 156.017C29.9654 157.003 29.8558 158.106 29.6864 159.266L32.7464 155.885L32.7633 155.942C32.5761 155.128 32.2748 154.345 31.8682 153.615L31.8878 153.668L30.0354 156.017Z" fill="#21B6A8"/>
<path d="M30.0474 155.844L31.8418 153.569C31.46 152.875 30.9079 152.289 30.2369 151.865C30.204 151.846 30.1709 151.827 30.1379 151.809C30.1477 152.078 30.1947 153.655 30.0474 155.844Z" fill="#21B6A8"/>
<path d="M28.4286 164.762C28.3497 165.001 28.2683 165.236 28.1843 165.467L32.6908 162.834L32.6971 162.9C32.7913 162.491 32.8697 162.082 32.9324 161.673L28.4327 164.792L28.4286 164.762Z" fill="#21B6A8"/>
<path d="M29.0553 162.553L33.114 159.218L33.1255 159.281C33.1399 158.178 33.023 157.078 32.7775 156.003L29.6592 159.448C29.4954 160.534 29.2941 161.569 29.0553 162.553Z" fill="#21B6A8"/>
<path d="M29.5895 159.382L24.733 153.984L24.759 153.923C24.3025 154.563 23.9121 155.248 23.5938 155.966L29.1357 161.845C29.3256 160.987 29.4739 160.156 29.5895 159.382Z" fill="#21B6A8"/>
<path d="M23.5414 156.088L23.5416 156.088C23.5503 156.068 23.5579 156.046 23.5668 156.026L23.5414 156.088Z" fill="#21B6A8"/>
<path d="M23.2711 156.75L23.2461 156.812C23.254 156.791 23.2631 156.771 23.2711 156.75Z" fill="#21B6A8"/>
<path d="M29.1038 161.988L23.5415 156.088C23.4475 156.303 23.3574 156.523 23.2712 156.75L28.9562 162.612C29.0079 162.403 29.0571 162.195 29.1038 161.988Z" fill="#21B6A8"/>
<path d="M32.9442 161.594C33.055 160.852 33.1153 160.103 33.1249 159.353L29.0113 162.733C28.8483 163.388 28.6689 164.018 28.4733 164.623L32.9355 161.529L32.9442 161.594Z" fill="#21B6A8"/>
<path d="M22.5336 162.014L27.036 167.866C27.4059 167.154 27.7327 166.42 28.0144 165.669L22.5205 159.921C22.4661 160.639 22.46 161.361 22.5024 162.08L22.5336 162.014Z" fill="#21B6A8"/>
<path d="M30.0556 151.804L30.0959 151.786C29.1099 151.261 28.0424 151.318 27.0193 151.85L29.9681 155.84C30.1268 153.472 30.0567 151.828 30.0556 151.804Z" fill="#21B6A8"/>
<path d="M28.0382 165.858C27.7798 166.534 27.4846 167.196 27.1539 167.84L31.6829 165.505L31.6874 165.57C32.0287 164.996 32.2955 164.381 32.4815 163.74C32.5535 163.488 32.6191 163.235 32.6785 162.981L28.1183 165.645C28.0916 165.716 28.0653 165.788 28.0382 165.858Z" fill="#21B6A8"/>
<path d="M29.9559 156.016L26.9394 151.935L26.9677 151.876C26.1044 152.374 25.3624 153.056 24.7953 153.873L29.6122 159.228C29.7789 158.081 29.8869 156.991 29.9559 156.016Z" fill="#21B6A8"/>
<path d="M28.0638 165.537C28.3996 164.625 28.6858 163.695 28.9213 162.751L23.2222 156.875C23.0865 157.242 22.9619 157.624 22.8484 158.021C22.6908 158.589 22.5857 159.171 22.5342 159.758L28.0594 165.54L28.0638 165.537Z" fill="#21B6A8"/>
<path d="M33.9175 171.877C33.2321 172.592 32.4413 173.372 31.5686 174.157L36.09 173.498L36.0667 173.552C36.4435 172.806 36.7129 172.012 36.867 171.191L36.8478 171.245L33.9175 171.877Z" fill="#21B6A8"/>
<path d="M36.7308 168.807C36.7179 168.771 36.7042 168.736 36.6904 168.701C36.526 168.914 35.5523 170.159 34.0375 171.751L36.876 171.139C37.0263 170.362 36.9764 169.56 36.7308 168.807Z" fill="#21B6A8"/>
<path d="M27.0808 177.591C26.8669 177.725 26.6538 177.854 26.4415 177.979L31.5977 178.815L31.5602 178.869C31.8948 178.614 32.2173 178.349 32.5276 178.073L27.0647 177.617L27.0808 177.591Z" fill="#21B6A8"/>
<path d="M28.978 176.288L34.2389 176.298L34.2079 176.354C34.9248 175.514 35.5394 174.592 36.0387 173.608L31.4311 174.28C30.6098 175.012 29.7921 175.681 28.978 176.288Z" fill="#21B6A8"/>
<path d="M27.2043 177.512L32.6217 177.965L32.5872 178.02C33.1476 177.519 33.6734 176.981 34.161 176.409L28.8289 176.398C28.2838 176.8 27.7422 177.171 27.2043 177.512Z" fill="#21B6A8"/>
<path d="M20.5691 180.183C20.6074 180.144 20.648 180.102 20.6881 180.061C21.7928 179.886 22.8722 179.579 23.9031 179.146L24.0503 175.257C24.094 175.158 24.1364 175.058 24.1776 174.958L24.021 179.097C24.7619 178.784 25.4833 178.426 26.1813 178.026L25.6782 170.796C25.717 170.776 25.7561 170.755 25.7963 170.734L26.2988 177.955L26.3037 177.956C27.1466 177.467 27.9624 176.932 28.7477 176.356L28.1998 169.24C28.2386 169.212 28.2773 169.184 28.3162 169.155L28.864 176.27C29.0378 176.142 29.2088 176.013 29.3772 175.883L28.9253 168.68C28.964 168.649 29.0026 168.617 29.0412 168.585L29.4935 175.793C30.189 175.253 30.835 174.708 31.4195 174.185L31.1352 166.942L31.1943 166.911C30.9925 166.964 30.7873 167.026 30.5803 167.094C30.9695 166.651 31.3195 166.176 31.6265 165.673L27.0542 168.03C26.7377 168.629 26.3818 169.206 25.9886 169.758C25.9069 169.835 25.8252 169.912 25.7447 169.992L25.7507 170.078C25.7134 170.127 25.6762 170.177 25.6385 170.225L25.6304 170.108C25.5727 170.167 25.5164 170.23 25.4593 170.29C26.0383 169.57 26.5465 168.796 26.9768 167.979L22.5073 162.17C22.5378 162.689 22.5887 163.212 22.6543 163.73C22.2393 163.058 21.7354 162.445 21.156 161.907L21.1912 161.952L20.1583 164.755C20.3977 165.715 20.6358 166.798 20.8344 167.953L22.67 163.852C22.6784 163.916 22.6873 163.98 22.6961 164.044L20.8649 168.134C21.0461 169.217 21.1758 170.264 21.2541 171.273L23.4519 167.834C23.4645 167.883 23.477 167.933 23.4896 167.982L21.268 171.458C21.3164 172.131 21.3413 172.786 21.3429 173.421L24.0295 169.89C24.0439 169.936 24.0579 169.981 24.0718 170.026L21.3567 173.595L21.3435 173.567C21.3427 173.819 21.3382 174.067 21.3298 174.313L24.3603 170.913C24.3764 170.961 24.3914 171.004 24.4052 171.044L21.3222 174.502C21.319 174.578 21.3162 174.655 21.3123 174.73C21.2763 175.452 21.2008 176.172 21.0861 176.886L21.3786 176.591C21.3232 176.706 21.2692 176.819 21.2167 176.93L21.0503 177.098C21.0312 177.207 21.0094 177.314 20.9885 177.421C20.9271 177.555 20.8679 177.687 20.811 177.814C20.8659 177.569 20.9172 177.323 20.961 177.074L14.908 172.925C16.4872 176.95 19.4609 180.779 19.6513 181.022C19.8058 180.734 19.9462 180.438 20.0752 180.136C20.1126 180.133 20.1501 180.129 20.1875 180.125C20.1721 180.162 20.156 180.199 20.1402 180.236C20.1213 180.238 20.1022 180.241 20.0834 180.243C20.0981 180.247 20.1157 180.251 20.1316 180.256C20.0408 180.467 19.9467 180.674 19.8457 180.875C19.9778 180.756 20.1791 180.569 20.4197 180.332C21.843 180.694 25.6775 181.468 28.9607 180.325L23.9303 179.234C22.8538 179.689 21.7247 180.007 20.5691 180.183ZM24.1039 173.842L24.2245 173.72L24.2176 173.903L24.097 174.024L24.1039 173.842Z" fill="#21B6A8"/>
<path d="M36.6302 168.645L36.6728 168.657C36.2494 167.626 35.3911 166.991 34.2625 166.751L33.979 171.697C35.6175 169.974 36.616 168.664 36.6302 168.645Z" fill="#21B6A8"/>
<path d="M26.0784 178.187C25.4466 178.544 24.7957 178.865 24.1288 179.151L29.1115 180.231L29.0734 180.284C29.7039 180.059 30.3031 179.754 30.8569 179.379C31.0738 179.23 31.2862 179.077 31.4943 178.92L26.2767 178.074C26.2106 178.112 26.1444 178.15 26.0784 178.187Z" fill="#21B6A8"/>
<path d="M31.5359 174.081C32.3982 173.304 33.1794 172.533 33.8567 171.826L34.1467 166.765L34.2057 166.739C33.2222 166.573 32.2141 166.627 31.254 166.896L31.5359 174.081Z" fill="#21B6A8"/>
<path d="M21.1165 161.871C20.5381 161.329 19.8311 160.941 19.0615 160.745C19.0242 160.737 18.987 160.729 18.95 160.722C19.0426 160.975 19.5767 162.46 20.1158 164.587L21.1165 161.871Z" fill="#21B6A8"/>
<path d="M20.7783 168.093L14.4847 164.455L14.4905 164.389C14.255 165.138 14.0962 165.91 14.0164 166.691L21.1108 170.575C21.0252 169.701 20.9085 168.865 20.7783 168.093Z" fill="#21B6A8"/>
<path d="M14.0042 166.823L14.0044 166.823C14.0065 166.801 14.007 166.778 14.0092 166.757L14.0042 166.823Z" fill="#21B6A8"/>
<path d="M13.9526 167.536L13.948 167.602C13.949 167.58 13.9515 167.558 13.9526 167.536Z" fill="#21B6A8"/>
<path d="M21.1248 170.721L14.0045 166.823C13.9816 167.056 13.9644 167.294 13.9529 167.536L21.1781 171.36C21.1624 171.145 21.1446 170.932 21.1248 170.721Z" fill="#21B6A8"/>
<path d="M21.2309 174.557L14.2225 170.782C14.3937 171.482 14.6118 172.17 14.8754 172.841L14.8846 172.769L20.9822 176.948C21.1131 176.157 21.1961 175.358 21.2309 174.557Z" fill="#21B6A8"/>
<path d="M18.8703 160.743L18.9031 160.713C17.8025 160.518 16.8048 160.9 15.9968 161.721L20.0393 164.608C19.4554 162.307 18.8786 160.765 18.8703 160.743Z" fill="#21B6A8"/>
<path d="M20.0824 164.779L15.9472 161.826L15.9561 161.762C15.2894 162.502 14.7954 163.379 14.5096 164.331L20.752 167.939C20.5548 166.798 20.3192 165.728 20.0824 164.779Z" fill="#21B6A8"/>
<path d="M21.237 174.417C21.2733 173.445 21.257 172.473 21.1882 171.503L13.945 167.67C13.9298 168.061 13.9298 168.462 13.9448 168.874C13.9714 169.463 14.0519 170.049 14.1852 170.624L21.2337 174.42L21.237 174.417Z" fill="#21B6A8"/>
<path d="M244.288 155.269C244.218 156.255 244.108 157.358 243.939 158.518L246.999 155.137L247.016 155.194C246.829 154.38 246.527 153.597 246.121 152.867L246.14 152.92L244.288 155.269Z" fill="#21B6A8"/>
<path d="M244.3 155.096L246.094 152.821C245.713 152.127 245.16 151.541 244.489 151.117C244.457 151.098 244.423 151.079 244.39 151.061C244.4 151.33 244.447 152.907 244.3 155.096Z" fill="#21B6A8"/>
<path d="M242.681 164.014C242.602 164.253 242.521 164.488 242.437 164.719L246.943 162.086L246.95 162.152C247.044 161.743 247.122 161.334 247.185 160.925L242.685 164.044L242.681 164.014Z" fill="#21B6A8"/>
<path d="M243.308 161.805L247.367 158.47L247.378 158.533C247.392 157.43 247.276 156.33 247.03 155.255L243.912 158.7C243.748 159.786 243.547 160.821 243.308 161.805Z" fill="#21B6A8"/>
<path d="M243.842 158.634L238.986 153.236L239.012 153.175C238.555 153.815 238.165 154.5 237.846 155.218L243.388 161.096C243.578 160.239 243.727 159.408 243.842 158.634Z" fill="#21B6A8"/>
<path d="M237.794 155.34L237.794 155.34C237.803 155.32 237.811 155.298 237.819 155.278L237.794 155.34Z" fill="#21B6A8"/>
<path d="M243.356 161.24L237.794 155.34C237.7 155.555 237.61 155.775 237.524 156.002L243.209 161.864C243.261 161.655 243.31 161.446 243.356 161.24Z" fill="#21B6A8"/>
<path d="M237.524 156.002L237.499 156.064C237.507 156.043 237.516 156.023 237.524 156.002Z" fill="#21B6A8"/>
<path d="M247.197 160.846C247.308 160.104 247.368 159.355 247.377 158.605L243.264 161.985C243.101 162.64 242.922 163.27 242.726 163.875L247.188 160.781L247.197 160.846Z" fill="#21B6A8"/>
<path d="M236.786 161.266L241.289 167.118C241.659 166.406 241.985 165.672 242.267 164.921L236.773 159.172C236.719 159.891 236.713 160.613 236.755 161.332L236.786 161.266Z" fill="#21B6A8"/>
<path d="M244.308 151.056L244.349 151.038C243.362 150.513 242.295 150.57 241.272 151.102L244.221 155.092C244.379 152.724 244.309 151.08 244.308 151.056Z" fill="#21B6A8"/>
<path d="M242.291 165.11C242.032 165.786 241.737 166.448 241.406 167.092L245.935 164.757L245.94 164.822C246.281 164.248 246.548 163.633 246.734 162.992C246.806 162.74 246.872 162.487 246.931 162.233L242.371 164.897C242.344 164.968 242.318 165.04 242.291 165.11Z" fill="#21B6A8"/>
<path d="M244.209 155.268L241.192 151.187L241.22 151.128C240.357 151.626 239.615 152.308 239.048 153.125L243.865 158.48C244.032 157.333 244.14 156.243 244.209 155.268Z" fill="#21B6A8"/>
<path d="M242.316 164.789C242.652 163.877 242.938 162.947 243.174 162.003L237.475 156.127C237.339 156.494 237.215 156.876 237.101 157.273C236.943 157.841 236.838 158.423 236.787 159.01L242.312 164.792L242.316 164.789Z" fill="#21B6A8"/>
<path d="M248.17 171.129C247.485 171.844 246.694 172.624 245.821 173.409L250.343 172.75L250.319 172.804C250.696 172.058 250.965 171.264 251.12 170.443L251.1 170.497L248.17 171.129Z" fill="#21B6A8"/>
<path d="M250.983 168.059C250.971 168.023 250.957 167.988 250.943 167.953C250.779 168.166 249.805 169.411 248.29 171.003L251.129 170.391C251.279 169.614 251.229 168.811 250.983 168.059Z" fill="#21B6A8"/>
<path d="M241.333 176.843C241.12 176.977 240.906 177.106 240.694 177.231L245.85 178.067L245.813 178.121C246.147 177.866 246.47 177.601 246.78 177.325L241.317 176.869L241.333 176.843Z" fill="#21B6A8"/>
<path d="M243.231 175.54L248.492 175.55L248.46 175.606C249.177 174.766 249.792 173.844 250.291 172.86L245.684 173.532C244.862 174.264 244.045 174.933 243.231 175.54Z" fill="#21B6A8"/>
<path d="M241.457 176.764L246.874 177.217L246.84 177.272C247.4 176.771 247.926 176.233 248.414 175.661L243.082 175.65C242.536 176.051 241.995 176.423 241.457 176.764Z" fill="#21B6A8"/>
<path d="M234.822 179.435C234.86 179.396 234.901 179.354 234.941 179.313C236.045 179.138 237.125 178.831 238.156 178.398L238.303 174.509C238.347 174.41 238.389 174.31 238.43 174.21L238.274 178.349C239.014 178.036 239.736 177.678 240.434 177.278L239.931 170.048C239.97 170.028 240.009 170.007 240.049 169.986L240.551 177.207L240.556 177.208C241.399 176.719 242.215 176.184 243 175.608L242.452 168.492C242.491 168.464 242.53 168.436 242.569 168.407L243.117 175.522C243.29 175.394 243.461 175.265 243.63 175.135L243.178 167.932C243.217 167.901 243.255 167.869 243.294 167.837L243.746 175.045C244.442 174.505 245.088 173.96 245.672 173.437L245.388 166.194L245.447 166.163C245.245 166.216 245.04 166.278 244.833 166.346C245.222 165.903 245.572 165.428 245.879 164.925L241.307 167.282C240.99 167.881 240.634 168.458 240.241 169.01C240.159 169.087 240.078 169.164 239.997 169.244L240.003 169.331C239.966 169.379 239.929 169.429 239.891 169.477L239.883 169.36C239.825 169.419 239.769 169.482 239.712 169.542C240.291 168.822 240.799 168.048 241.229 167.231L236.76 161.422C236.79 161.941 236.841 162.464 236.907 162.982C236.492 162.31 235.988 161.697 235.409 161.159L235.444 161.204L234.411 164.007C234.65 164.967 234.888 166.05 235.087 167.205L236.923 163.104C236.931 163.168 236.94 163.232 236.949 163.296L235.117 167.386C235.299 168.469 235.428 169.516 235.507 170.525L237.704 167.086C237.717 167.135 237.73 167.185 237.742 167.234L235.521 170.71C235.569 171.383 235.594 172.038 235.595 172.673L238.282 169.142C238.296 169.188 238.31 169.234 238.324 169.278L235.609 172.847L235.596 172.819C235.595 173.071 235.591 173.319 235.582 173.565L238.613 170.165C238.629 170.213 238.644 170.256 238.658 170.296L235.575 173.754C235.572 173.83 235.569 173.907 235.565 173.982C235.529 174.704 235.453 175.424 235.339 176.138L235.631 175.843C235.576 175.958 235.522 176.071 235.469 176.182L235.303 176.35C235.284 176.459 235.262 176.566 235.241 176.673C235.18 176.807 235.12 176.939 235.064 177.066C235.119 176.821 235.17 176.575 235.214 176.326L229.161 172.177C230.74 176.202 233.713 180.031 233.904 180.274C234.058 179.986 234.199 179.69 234.328 179.388C234.365 179.385 234.403 179.381 234.44 179.377C234.425 179.414 234.409 179.451 234.393 179.488C234.374 179.49 234.355 179.493 234.336 179.495C234.351 179.499 234.368 179.503 234.384 179.508C234.293 179.719 234.199 179.926 234.098 180.127C234.23 180.008 234.432 179.821 234.672 179.584C236.096 179.946 239.93 180.72 243.213 179.577L238.183 178.486C237.106 178.941 235.977 179.259 234.822 179.435ZM238.356 173.094L238.477 172.972L238.47 173.155L238.35 173.276L238.356 173.094Z" fill="#21B6A8"/>
<path d="M250.883 167.897L250.925 167.909C250.502 166.878 249.644 166.243 248.515 166.003L248.232 170.949C249.87 169.226 250.869 167.916 250.883 167.897Z" fill="#21B6A8"/>
<path d="M240.331 177.439C239.699 177.796 239.048 178.118 238.381 178.403L243.364 179.483L243.326 179.536C243.956 179.311 244.556 179.006 245.109 178.631C245.326 178.482 245.539 178.329 245.747 178.172L240.529 177.326C240.463 177.364 240.397 177.402 240.331 177.439Z" fill="#21B6A8"/>
<path d="M245.789 173.333C246.651 172.556 247.432 171.785 248.109 171.078L248.399 166.017L248.458 165.991C247.475 165.825 246.467 165.879 245.507 166.148L245.789 173.333Z" fill="#21B6A8"/>
<path d="M235.369 161.123C234.791 160.581 234.084 160.193 233.314 159.997C233.277 159.989 233.24 159.981 233.203 159.974C233.295 160.227 233.829 161.712 234.369 163.839L235.369 161.123Z" fill="#21B6A8"/>
<path d="M235.031 167.345L228.737 163.707L228.743 163.641C228.508 164.39 228.349 165.162 228.269 165.943L235.363 169.827C235.278 168.952 235.161 168.117 235.031 167.345Z" fill="#21B6A8"/>
<path d="M228.205 166.788L228.201 166.854C228.202 166.832 228.204 166.81 228.205 166.788Z" fill="#21B6A8"/>
<path d="M228.257 166.075L228.257 166.075C228.259 166.053 228.26 166.03 228.262 166.008L228.257 166.075Z" fill="#21B6A8"/>
<path d="M235.377 169.973L228.257 166.075C228.234 166.308 228.217 166.546 228.205 166.788L235.431 170.612C235.415 170.397 235.397 170.184 235.377 169.973Z" fill="#21B6A8"/>
<path d="M235.484 173.809L228.475 170.034C228.646 170.734 228.865 171.422 229.128 172.093L229.137 172.021L235.235 176.2C235.366 175.409 235.449 174.61 235.484 173.809Z" fill="#21B6A8"/>
<path d="M233.123 159.995L233.156 159.965C232.055 159.77 231.057 160.152 230.249 160.973L234.292 163.86C233.708 161.559 233.131 160.017 233.123 159.995Z" fill="#21B6A8"/>
<path d="M234.335 164.031L230.2 161.078L230.209 161.014C229.542 161.754 229.048 162.631 228.762 163.583L235.005 167.191C234.807 166.05 234.572 164.98 234.335 164.031Z" fill="#21B6A8"/>
<path d="M235.49 173.669C235.526 172.697 235.51 171.725 235.441 170.755L228.198 166.922C228.182 167.313 228.182 167.714 228.197 168.126C228.224 168.715 228.304 169.301 228.438 169.876L235.486 173.672L235.49 173.669Z" fill="#21B6A8"/>
<path d="M15.2208 181.273H252V184.648C252 186.067 251.434 187.429 250.426 188.432C249.419 189.436 248.052 190 246.628 190H20.5933C19.1684 190 17.8019 189.436 16.7944 188.432C15.7869 187.429 15.2208 186.067 15.2208 184.648V181.273Z" fill="#717171"/>
<path d="M252 178.53H15.2208V183.268H252V178.53Z" fill="#3F3D56"/>
<path d="M198.723 16.4502L201.442 18.1681L199.791 15.1776C200.259 14.8059 200.838 14.6001 201.436 14.5929C201.45 14.5929 201.465 14.593 201.48 14.5932C201.668 14.5963 201.857 14.5824 202.044 14.5517L202.965 15.1339L202.57 14.4183C203.223 14.1915 203.787 13.7648 204.182 13.1994L205.832 14.2414L204.79 12.354C205.754 11.2005 207.055 10.4932 208.486 10.4932C210.201 10.4932 211.729 11.5095 212.715 13.0929C213.007 13.5666 213.419 13.9551 213.91 14.2188C214.401 14.4826 214.953 14.6122 215.511 14.5946C215.542 14.5934 215.572 14.5929 215.603 14.5929C217.497 14.5929 219.032 16.7317 219.032 19.3701C219.032 22.0085 217.497 24.1474 215.603 24.1474C215.187 24.1459 214.777 24.0436 214.409 23.8495C213.764 23.5375 213.059 23.3686 212.343 23.3546C211.626 23.3407 210.915 23.482 210.259 23.7687C209.704 24.017 209.104 24.146 208.496 24.1474C207.888 24.1488 207.286 24.0225 206.731 23.7768C206.079 23.4956 205.375 23.3571 204.665 23.3707C203.956 23.3844 203.257 23.5499 202.617 23.8561C202.253 24.046 201.847 24.1459 201.436 24.1474C199.542 24.1474 198.007 22.0085 198.007 19.3701C197.996 18.3524 198.242 17.3483 198.723 16.4502Z" fill="#D0D0D0"/>
<path d="M60.3703 30.4808L62.1002 31.5736L61.0499 29.6712C61.3474 29.4348 61.7155 29.3039 62.096 29.2993C62.1053 29.2993 62.1146 29.2994 62.1238 29.2995C62.244 29.3015 62.3641 29.2926 62.4828 29.2731L63.069 29.6434L62.8177 29.1882C63.233 29.0439 63.592 28.7726 63.8433 28.4129L64.8925 29.0757L64.2296 27.8751C64.5088 27.5164 64.8646 27.2241 65.2712 27.0194C65.6778 26.8146 66.125 26.7026 66.5805 26.6914C67.6716 26.6914 68.6436 27.3379 69.2711 28.3451C69.4565 28.6465 69.7188 28.8936 70.0311 29.0613C70.3435 29.2291 70.6948 29.3116 71.0495 29.3004C71.069 29.2996 71.0886 29.2993 71.1082 29.2993C72.3127 29.2993 73.2892 30.6599 73.2892 32.3382C73.2892 34.0166 72.3128 35.3771 71.1082 35.3771C70.8433 35.3761 70.5826 35.3111 70.3485 35.1877C69.9384 34.9891 69.49 34.8817 69.0342 34.8728C68.5784 34.864 68.1261 34.9538 67.7086 35.1362C67.3558 35.2942 66.9736 35.3762 66.5869 35.3771C66.2002 35.378 65.8177 35.2977 65.4642 35.1414C65.0499 34.9625 64.6019 34.8744 64.1504 34.8831C63.699 34.8918 63.2547 34.9971 62.8476 35.1918C62.6156 35.3126 62.3578 35.3762 62.096 35.3771C60.8914 35.3771 59.9149 34.0166 59.9149 32.3382C59.9079 31.6908 60.0645 31.052 60.3703 30.4808Z" fill="#D0D0D0"/>
<path d="M13.8155 36.339L15.5454 37.4318L14.4951 35.5294C14.7925 35.293 15.1607 35.1621 15.5412 35.1575C15.5505 35.1575 15.5597 35.1576 15.569 35.1577C15.6892 35.1597 15.8093 35.1508 15.9279 35.1313L16.5142 35.5016L16.2629 35.0465C16.6782 34.9022 17.0372 34.6308 17.2884 34.2711L18.3377 34.934L17.6748 33.7333C17.954 33.3746 18.3098 33.0823 18.7164 32.8776C19.123 32.6729 19.5702 32.5608 20.0257 32.5496C21.1168 32.5496 22.0888 33.1961 22.7163 34.2033C22.9017 34.5047 23.164 34.7518 23.4763 34.9196C23.7887 35.0873 24.14 35.1698 24.4947 35.1586C24.5142 35.1579 24.5337 35.1575 24.5534 35.1575C25.7579 35.1575 26.7344 36.5181 26.7344 38.1964C26.7344 39.8748 25.7579 41.2354 24.5534 41.2354C24.2885 41.2344 24.0278 41.1693 23.7937 41.0459C23.3836 40.8474 22.9352 40.7399 22.4794 40.7311C22.0236 40.7222 21.5713 40.8121 21.1538 40.9945C20.801 41.1524 20.4188 41.2345 20.0321 41.2353C19.6454 41.2362 19.2628 41.1559 18.9094 40.9996C18.4951 40.8207 18.0471 40.7326 17.5956 40.7413C17.1442 40.75 16.6999 40.8553 16.2928 41.05C16.0608 41.1709 15.803 41.2344 15.5412 41.2354C14.3366 41.2354 13.3601 39.8748 13.3601 38.1964C13.3531 37.549 13.5097 36.9103 13.8155 36.339Z" fill="#D0D0D0"/>
<path d="M76.2699 148.824L75.9678 149.125C75.9678 149.125 76.0685 152.436 76.1692 153.138C76.2699 153.841 76.6728 155.045 76.3706 155.948C76.0685 156.851 75.9678 157.553 76.0685 157.653C76.1692 157.754 75.9678 158.155 75.9678 158.155L76.7735 157.653L78.0827 154.643L77.4785 151.433L76.2699 148.824Z" fill="#21B6A8"/>
<path opacity="0.1" d="M76.2699 148.824L75.9678 149.125C75.9678 149.125 76.0685 152.436 76.1692 153.138C76.2699 153.841 76.6728 155.045 76.3706 155.948C76.0685 156.851 75.9678 157.553 76.0685 157.653C76.1692 157.754 75.9678 158.155 75.9678 158.155L76.7735 157.653L78.0827 154.643L77.4785 151.433L76.2699 148.824Z" fill="#717171"/>
<path d="M81.6077 180.026C81.6077 180.026 81.6076 178.923 81.4062 178.722C81.2048 178.522 80.9027 177.819 80.4998 177.819C80.097 177.819 78.687 178.221 78.687 178.321C78.6985 178.634 78.6292 178.945 78.4856 179.224C78.2842 179.525 77.1763 180.729 78.2842 180.929C78.6525 180.99 79.0292 180.976 79.3922 180.89C79.7553 180.804 80.0976 180.647 80.3991 180.428C80.4998 180.327 80.9027 180.227 81.0034 180.327C81.1041 180.428 81.6077 180.026 81.6077 180.026Z" fill="#21B6A8"/>
<path d="M84.4276 178.221L85.0318 179.324C85.0318 179.324 85.2332 180.327 85.5354 180.428H85.8375C85.8375 180.428 86.1396 181.531 86.8446 181.431C87.5496 181.331 88.3553 180.929 88.3553 180.729C88.3553 180.528 88.3553 179.926 88.0532 179.725C87.6295 179.381 87.226 179.012 86.8446 178.622L86.3411 178.12L84.4276 178.221Z" fill="#21B6A8"/>
<path d="M76.6984 141.469C76.5046 141.568 76.3374 141.711 76.2108 141.888C76.0842 142.064 76.0019 142.268 75.9709 142.483C75.9149 143.199 76.6257 143.874 76.397 144.555C76.2672 144.942 75.8628 145.193 75.7465 145.584C75.6852 145.896 75.7312 146.219 75.8769 146.502C76.0359 146.89 76.2295 147.263 76.4554 147.616C76.8799 148.28 77.4324 148.91 77.5459 149.689C77.5773 149.825 77.5759 149.967 77.5418 150.103C77.5076 150.238 77.4417 150.364 77.3494 150.469C77.5537 150.315 77.7876 150.204 78.0365 150.143C79.0658 149.801 80.0221 149.27 80.8565 148.579C81.1596 148.366 81.3878 148.064 81.5086 147.715C81.6623 147.099 81.1927 146.482 81.2377 145.849C81.2665 145.443 81.5013 145.085 81.6342 144.701C81.7498 144.319 81.7866 143.917 81.7425 143.52C81.6983 143.124 81.5741 142.74 81.3773 142.392C81.2143 142.055 80.9843 141.755 80.7013 141.51C80.4183 141.265 80.0882 141.079 79.731 140.965C79.1816 140.838 78.6085 140.854 78.0674 141.013C77.5946 141.111 77.1351 141.264 76.6984 141.469Z" fill="#717171"/>
<path d="M77.2654 147.033C77.4872 146.622 77.8156 146.279 78.2162 146.038C78.6169 145.797 79.0751 145.668 79.543 145.664C81.1544 145.664 80.8523 145.564 80.8523 145.564L80.3487 147.57L79.3416 148.573L77.2654 147.033Z" fill="#21B6A8"/>
<path d="M77.6799 144.912C77.6799 144.912 78.5863 146.416 77.982 147.018C77.3778 147.62 77.6799 148.222 77.7806 148.323C77.8813 148.423 80.7012 148.624 80.7012 148.624L80.802 147.219L81.1041 146.015C81.1041 146.015 79.4927 145.714 79.6941 145.012C79.8956 144.31 77.6799 144.912 77.6799 144.912Z" fill="#FBBEBE"/>
<path opacity="0.1" d="M77.6799 144.912C77.6799 144.912 78.5863 146.416 77.982 147.018C77.3778 147.62 77.6799 148.222 77.7806 148.323C77.8813 148.423 80.7012 148.624 80.7012 148.624L80.802 147.219L81.1041 146.015C81.1041 146.015 79.4927 145.714 79.6941 145.012C79.8956 144.31 77.6799 144.912 77.6799 144.912Z" fill="#717171"/>
<path d="M84.7297 159.158C84.6219 159.503 84.4872 159.838 84.3269 160.161C84.2261 160.262 83.924 159.459 83.924 159.459L84.2261 158.757L84.7297 159.158Z" fill="#FBBEBE"/>
<path d="M83.5715 154.593L83.9743 156.901H77.9316L78.2337 154.593H83.5715Z" fill="#FBBEBE"/>
<path d="M78.7877 145.714C79.8445 145.714 80.7012 144.861 80.7012 143.808C80.7012 142.755 79.8445 141.902 78.7877 141.902C77.7309 141.902 76.8742 142.755 76.8742 143.808C76.8742 144.861 77.7309 145.714 78.7877 145.714Z" fill="#FBBEBE"/>
<path d="M79.1906 147.721C79.1906 147.721 78.0827 147.821 78.0827 147.62C78.0827 147.42 77.982 146.818 77.7806 146.918C77.5792 147.018 76.2699 147.119 76.3706 147.42C76.4714 147.721 76.6728 148.323 76.4714 148.323C76.3843 148.34 76.3017 148.376 76.2287 148.426C76.1557 148.477 76.0938 148.541 76.0467 148.616C75.9996 148.691 75.9683 148.775 75.9548 148.863C75.9412 148.95 75.9456 149.04 75.9678 149.125C76.0685 149.627 77.1763 152.637 77.1763 152.637C77.1763 152.637 77.277 153.64 77.5792 153.941C77.7021 154.099 77.7688 154.293 77.7688 154.493C77.7688 154.693 77.7021 154.887 77.5792 155.045C77.3778 155.245 78.0827 155.446 78.3849 155.847C78.687 156.249 81.0034 155.948 81.1041 155.847C81.2048 155.747 83.6219 155.747 83.8233 155.546C84.0247 155.346 83.7226 154.744 83.7226 154.744C83.7226 154.744 83.6219 153.841 83.7226 153.54C83.8233 153.239 83.3197 148.323 83.0176 148.022C82.7155 147.721 83.924 146.818 83.924 146.818C83.924 146.818 83.7226 146.015 82.4133 145.915C82.4133 145.915 82.0105 145.313 81.6076 145.313C81.2048 145.313 80.3301 145.78 80.3301 145.78C80.3301 145.78 80.097 147.119 79.7948 147.219C79.556 147.336 79.3487 147.508 79.1906 147.721Z" fill="#21B6A8"/>
<path d="M83.219 146.517L83.924 146.818C83.924 146.818 85.9382 153.038 85.7368 154.242C85.5354 155.446 85.0318 159.559 84.7297 159.559C84.4276 159.559 83.8233 158.957 83.8233 158.957V157.954C83.8233 157.754 83.5212 157.152 83.7226 157.152C83.924 157.152 84.2261 156.951 84.0247 156.75C83.8233 156.55 83.6219 156.249 83.8233 155.948C84.0247 155.647 84.1254 155.546 84.0247 155.245C83.924 154.944 83.7226 154.643 83.924 154.443C84.1254 154.242 83.4204 153.239 83.4204 153.239L82.3126 148.824L82.514 147.018L83.219 146.517Z" fill="#21B6A8"/>
<path d="M83.6219 156.048C83.6219 156.048 79.7949 155.747 79.2913 155.747C78.7877 155.747 77.658 155.275 77.658 155.275C77.658 155.275 74.7593 158.155 75.7664 162.87C76.7735 167.586 76.9749 173.405 77.5792 175.11C77.9899 176.326 78.3262 177.566 78.5863 178.823C78.5863 178.823 79.5934 177.017 81.5069 179.023C81.5069 179.023 81.7084 177.518 81.4062 176.916C81.1041 176.314 80.7012 173.104 80.7012 173.104C80.7012 173.104 79.9963 167.987 79.9963 167.385C79.9963 166.783 79.5934 161.666 79.6941 161.566C79.7949 161.466 80.2984 165.479 80.3991 166.181C80.4998 166.883 80.802 172.301 81.1041 172.903C81.4062 173.505 82.8162 178.321 83.6219 178.622C84.4276 178.923 87.1468 178.522 87.0461 178.321C86.9453 178.12 86.2404 177.017 86.039 176.716L85.2333 175.512L83.3197 168.99L84.2261 161.064C84.2261 161.064 84.7297 155.948 83.6219 156.048Z" fill="#717171"/>
<path d="M79.9534 143.557H77.4995C77.3954 143.557 77.2947 143.52 77.2155 143.453C77.1364 143.385 77.084 143.292 77.0677 143.19L76.8239 141.651H80.6509L80.3087 143.27C80.2916 143.351 80.2469 143.424 80.1822 143.476C80.1175 143.529 80.0367 143.557 79.9534 143.557Z" fill="#717171"/>
<path d="M206.422 143.082H210.294V148.592C209.785 148.592 209.282 148.492 208.812 148.298C208.342 148.105 207.916 147.821 207.556 147.462C207.197 147.104 206.911 146.679 206.717 146.211C206.522 145.743 206.422 145.242 206.422 144.735V143.082Z" fill="#717171"/>
<path d="M204.164 175.362L203.887 176.739H205.823L205.915 175.362H204.164Z" fill="#A0616A"/>
<path d="M204.164 176.464C204.164 176.464 203.795 176.188 203.611 176.372C203.426 176.555 202.781 180.137 202.689 180.229C202.597 180.321 199.831 181.698 200.476 181.79C201.122 181.882 203.611 181.974 203.979 181.79C204.348 181.606 205.362 179.862 205.362 179.862V181.423H205.546C205.546 181.423 205.731 179.77 206.192 179.31C206.653 178.851 205.823 177.29 205.823 177.29C205.823 177.29 206.007 176.28 205.915 176.28C205.823 176.28 204.164 176.464 204.164 176.464Z" fill="#21B6A8"/>
<path d="M209.879 174.397L209.602 175.775H211.538L211.631 174.397H209.879Z" fill="#A0616A"/>
<path d="M207.667 165.444C207.667 165.444 208.588 168.199 208.773 168.474C208.957 168.75 209.603 173.892 209.603 173.892C209.603 173.892 208.957 174.902 209.787 174.994C210.617 175.086 210.248 174.811 210.801 174.994C210.951 175.051 211.113 175.072 211.273 175.056C211.433 175.04 211.587 174.988 211.723 174.902C211.723 174.902 211.999 174.351 211.815 174.168C211.631 173.984 211.999 169.209 211.999 169.209L211.446 167.556L210.985 162.321C210.985 162.321 211.538 160.944 211.262 160.576C210.985 160.209 210.063 160.852 210.063 160.852L207.667 165.444Z" fill="#717171"/>
<path d="M206.468 158.281C206.468 158.281 206.192 161.219 206.007 161.403C205.823 161.587 203.795 166.729 203.795 166.729C203.795 166.729 203.242 167.372 203.426 169.76C203.611 172.147 204.071 174.535 204.071 174.535C204.071 174.535 203.703 175.913 204.348 175.913C204.993 175.913 205.27 175.545 205.546 175.821C205.823 176.096 206.007 175.821 206.1 175.637C206.192 175.453 206.56 174.811 206.56 174.627C206.56 174.443 206.929 169.76 206.929 169.76C206.929 169.76 209.971 163.056 210.248 162.689C210.524 162.321 212.091 160.301 211.999 158.923L206.468 158.281Z" fill="#717171"/>
<path d="M208.773 145.883C209.842 145.883 210.709 145.02 210.709 143.954C210.709 142.889 209.842 142.026 208.773 142.026C207.704 142.026 206.837 142.889 206.837 143.954C206.837 145.02 207.704 145.883 208.773 145.883Z" fill="#A0616A"/>
<path d="M208.404 145.607C208.404 145.607 209.142 147.26 209.234 147.72C209.326 148.179 211.077 146.801 211.077 146.801C211.077 146.801 210.156 145.24 210.432 144.505L208.404 145.607Z" fill="#A0616A"/>
<path d="M211.354 146.526C211.354 146.526 209.971 145.516 208.957 147.628C207.943 149.74 207.667 149.648 207.667 149.648C207.667 149.648 206.468 150.015 206.837 152.587C207.206 155.158 205.639 158.556 206.284 158.74C206.929 158.923 212.921 159.934 212.921 159.199C212.921 158.464 212.368 155.617 212.829 153.873C213.29 152.128 212.184 146.067 211.354 146.526Z" fill="#3F3D56"/>
<path d="M209.971 146.985C209.971 146.985 208.865 148.638 208.957 149.924C209.049 151.209 209.049 152.036 209.049 152.036C209.049 152.036 207.206 160.852 207.574 160.852C207.943 160.852 209.049 161.311 209.142 161.036C209.234 160.76 211.538 155.158 211.538 155.158C211.538 155.158 212.091 149.556 211.446 148.271C210.801 146.985 209.971 146.985 209.971 146.985Z" fill="#3F3D56"/>
<path d="M207.759 160.576C207.759 160.576 206.837 163.699 208.128 163.791C209.418 163.882 208.681 160.76 208.681 160.76L207.759 160.576Z" fill="#A0616A"/>
<path d="M210.212 175.06C210.212 175.06 209.889 174.818 209.728 174.979C209.567 175.14 209.001 178.276 208.921 178.357C208.84 178.437 206.418 179.644 206.983 179.724C207.548 179.804 209.728 179.885 210.051 179.724C210.374 179.563 211.262 178.035 211.262 178.035V179.402H211.423C211.423 179.402 211.585 177.955 211.988 177.553C212.392 177.151 211.665 175.783 211.665 175.783C211.665 175.783 211.827 174.899 211.746 174.899C211.665 174.899 210.212 175.06 210.212 175.06Z" fill="#21B6A8"/>
<path d="M207.816 142.691C207.877 142.616 207.958 142.559 208.049 142.526C208.134 142.511 208.222 142.518 208.303 142.548C208.881 142.716 209.383 143.079 209.721 143.575C209.787 143.702 209.886 143.808 210.007 143.883C210.086 143.907 210.163 143.936 210.238 143.971C210.454 144.113 210.325 144.442 210.201 144.668C209.884 145.248 209.738 145.907 209.779 146.566C209.776 146.681 209.81 146.794 209.876 146.888C209.98 146.984 210.116 147.039 210.259 147.041C210.706 147.097 211.157 147.121 211.608 147.113C212.049 147.105 212.538 147.042 212.824 146.707C213.132 146.347 213.083 145.796 212.884 145.367C212.684 144.939 212.359 144.581 212.128 144.168C211.909 143.731 211.736 143.274 211.612 142.802C211.452 142.2 211.195 141.628 210.85 141.108C210.676 140.849 210.45 140.629 210.187 140.461C209.923 140.293 209.628 140.18 209.319 140.131C208.482 140.038 207.71 140.551 207.036 141.056C206.281 141.623 205.476 142.325 205.416 143.265C205.366 144.027 205.826 144.717 206.066 145.442C206.436 146.562 206.281 147.778 206.122 148.946C206.804 148.539 207.577 147.973 207.532 147.182C207.502 146.648 207.097 146.222 206.846 145.749C206.153 144.451 206.943 143.58 207.816 142.691Z" fill="#717171"/>
<path d="M235.039 152.077C235.625 151.058 235.928 149.902 235.916 148.728C235.916 145.702 234.035 143.249 231.715 143.249C229.394 143.249 227.513 145.702 227.513 148.728C227.501 149.902 227.804 151.058 228.39 152.077C227.815 153.1 227.513 154.253 227.513 155.425C227.513 156.598 227.815 157.751 228.39 158.774C227.815 159.797 227.513 160.95 227.513 162.122C227.513 163.295 227.815 164.448 228.39 165.471C227.815 166.494 227.513 167.646 227.513 168.819C227.513 169.991 227.815 171.144 228.39 172.167C227.804 173.186 227.501 174.342 227.513 175.516C227.513 178.542 229.394 180.995 231.715 180.995C234.035 180.995 235.916 178.542 235.916 175.516C235.928 174.342 235.625 173.186 235.039 172.167C235.614 171.144 235.916 169.991 235.916 168.819C235.916 167.646 235.614 166.494 235.039 165.471C235.614 164.448 235.916 163.295 235.916 162.122C235.916 160.95 235.614 159.797 235.039 158.774C235.614 157.751 235.916 156.598 235.916 155.425C235.916 154.253 235.614 153.1 235.039 152.077Z" fill="#3F3D56"/>
<path d="M231.715 147.511C234.035 147.511 235.916 145.058 235.916 142.032C235.916 139.006 234.035 136.552 231.715 136.552C229.394 136.552 227.513 139.006 227.513 142.032C227.513 145.058 229.394 147.511 231.715 147.511Z" fill="#3F3D56"/>
<path d="M231.715 140.814C234.035 140.814 235.916 138.361 235.916 135.335C235.916 132.309 234.035 129.856 231.715 129.856C229.394 129.856 227.513 132.309 227.513 135.335C227.513 138.361 229.394 140.814 231.715 140.814Z" fill="#3F3D56"/>
<path d="M247.443 89.5063C248.017 88.7783 248.54 88.0117 249.007 87.2118L237.968 85.4056L249.908 85.4941C251.053 83.0115 251.678 80.3222 251.744 77.5907C251.81 74.8592 251.316 72.143 250.292 69.6084L234.273 77.8864L249.046 67.0685C247.662 64.686 245.8 62.6128 243.577 60.9783C241.354 59.3437 238.816 58.1828 236.123 57.5677C233.429 56.9527 230.638 56.8967 227.922 57.4034C225.206 57.91 222.623 58.9684 220.336 60.5125C218.048 62.0567 216.105 64.0535 214.625 66.3787C213.146 68.7039 212.164 71.3076 211.739 74.0276C211.314 76.7476 211.456 79.5257 212.155 82.1887C212.855 84.8517 214.098 87.3426 215.806 89.5063C214.912 90.6394 214.142 91.8652 213.511 93.1625L227.841 100.579L212.561 95.4705C211.488 98.63 211.223 102.006 211.79 105.294C212.356 108.581 213.737 111.676 215.806 114.298C213.471 117.255 212.019 120.807 211.615 124.548C211.211 128.289 211.872 132.067 213.522 135.452C215.172 138.836 217.745 141.69 220.946 143.686C224.147 145.682 227.848 146.741 231.625 146.741C235.401 146.741 239.102 145.682 242.303 143.686C245.504 141.69 248.077 138.836 249.727 135.452C251.377 132.067 252.038 128.289 251.634 124.548C251.23 120.807 249.778 117.255 247.443 114.298C250.233 110.764 251.75 106.398 251.75 101.902C251.75 97.4059 250.233 93.0403 247.443 89.5063Z" fill="#D0D0D0"/>
<path d="M211.499 101.902C211.492 106.399 213.01 110.767 215.806 114.298C213.471 117.255 212.019 120.807 211.615 124.548C211.211 128.289 211.872 132.067 213.522 135.452C215.172 138.836 217.745 141.69 220.946 143.686C224.147 145.682 227.848 146.741 231.625 146.741C235.401 146.741 239.102 145.682 242.303 143.686C245.504 141.69 248.077 138.836 249.727 135.452C251.377 132.067 252.038 128.289 251.634 124.548C251.23 120.807 249.778 117.255 247.443 114.298C250.14 110.886 211.499 99.6518 211.499 101.902Z" fill="#D0D0D0"/>
<path d="M247.443 89.5063C248.017 88.7783 248.54 88.0117 249.007 87.2118L237.968 85.4056L249.908 85.4941C251.053 83.0115 251.678 80.3222 251.744 77.5907C251.81 74.8592 251.316 72.143 250.292 69.6084L234.273 77.8864L249.046 67.0685C247.662 64.686 245.8 62.6128 243.577 60.9783C241.354 59.3437 238.816 58.1828 236.123 57.5677C233.429 56.9527 230.638 56.8967 227.922 57.4034C225.206 57.91 222.623 58.9684 220.336 60.5125C218.048 62.0567 216.105 64.0535 214.625 66.3787C213.146 68.7039 212.164 71.3076 211.739 74.0276C211.314 76.7476 211.456 79.5257 212.155 82.1887C212.855 84.8517 214.098 87.3426 215.806 89.5063C214.912 90.6394 214.142 91.8652 213.511 93.1625L227.841 100.579L212.561 95.4705C211.488 98.63 211.223 102.006 211.79 105.294C212.356 108.581 213.737 111.676 215.806 114.298C213.471 117.255 212.019 120.807 211.615 124.548C211.211 128.289 211.872 132.067 213.522 135.452C215.172 138.836 217.745 141.69 220.946 143.686C224.147 145.682 227.848 146.741 231.625 146.741C235.401 146.741 239.102 145.682 242.303 143.686C245.504 141.69 248.077 138.836 249.727 135.452C251.377 132.067 252.038 128.289 251.634 124.548C251.23 120.807 249.778 117.255 247.443 114.298C250.233 110.764 251.75 106.398 251.75 101.902C251.75 97.4059 250.233 93.0403 247.443 89.5063Z" fill="#21B6A8"/>
<path opacity="0.1" d="M211.499 101.902C211.492 106.399 213.01 110.767 215.806 114.298C213.471 117.255 212.019 120.807 211.615 124.548C211.211 128.289 211.872 132.067 213.522 135.452C215.172 138.836 217.745 141.69 220.946 143.686C224.147 145.682 227.848 146.741 231.625 146.741C235.401 146.741 239.102 145.682 242.303 143.686C245.504 141.69 248.077 138.836 249.727 135.452C251.377 132.067 252.038 128.289 251.634 124.548C251.23 120.807 249.778 117.255 247.443 114.298C250.14 110.886 211.499 99.6518 211.499 101.902Z" fill="#717171"/>
<path d="M23.5398 152.077C24.1256 151.058 24.4283 149.902 24.4167 148.728C24.4167 145.702 22.5356 143.249 20.2152 143.249C17.8948 143.249 16.0137 145.702 16.0137 148.728C16.0022 149.902 16.3049 151.058 16.8907 152.077C16.3157 153.1 16.0137 154.253 16.0137 155.425C16.0137 156.598 16.3157 157.751 16.8907 158.774C16.3157 159.797 16.0137 160.95 16.0137 162.122C16.0137 163.295 16.3157 164.448 16.8907 165.471C16.3157 166.494 16.0137 167.646 16.0137 168.819C16.0137 169.991 16.3157 171.144 16.8907 172.167C16.3049 173.186 16.0022 174.342 16.0137 175.516C16.0137 178.542 17.8948 180.995 20.2152 180.995C22.5357 180.995 24.4167 178.542 24.4167 175.516C24.4283 174.342 24.1256 173.186 23.5398 172.167C24.1148 171.144 24.4167 169.991 24.4167 168.819C24.4167 167.646 24.1148 166.494 23.5398 165.471C24.1148 164.448 24.4167 163.295 24.4167 162.122C24.4167 160.95 24.1148 159.797 23.5398 158.774C24.1148 157.751 24.4167 156.598 24.4167 155.425C24.4167 154.253 24.1148 153.1 23.5398 152.077Z" fill="#3F3D56"/>
<path d="M20.2152 147.511C22.5356 147.511 24.4166 145.058 24.4166 142.032C24.4166 139.006 22.5356 136.552 20.2152 136.552C17.8947 136.552 16.0137 139.006 16.0137 142.032C16.0137 145.058 17.8947 147.511 20.2152 147.511Z" fill="#3F3D56"/>
<path d="M20.2152 140.814C22.5356 140.814 24.4166 138.361 24.4166 135.335C24.4166 132.309 22.5356 129.856 20.2152 129.856C17.8947 129.856 16.0137 132.309 16.0137 135.335C16.0137 138.361 17.8947 140.814 20.2152 140.814Z" fill="#3F3D56"/>
<path d="M35.9435 89.5063C36.5175 88.7783 37.0403 88.0117 37.5081 87.2118L26.4684 85.4056L38.4082 85.4941C39.5536 83.0115 40.1784 80.3222 40.2445 77.5907C40.3106 74.8592 39.8165 72.143 38.7925 69.6084L22.7739 77.8864L37.5468 67.0685C36.1628 64.686 34.3011 62.6128 32.0777 60.9783C29.8544 59.3437 27.3169 58.1828 24.6235 57.5677C21.9302 56.9527 19.1385 56.8967 16.4224 57.4034C13.7064 57.91 11.1242 58.9684 8.8366 60.5125C6.54905 62.0567 4.60518 64.0535 3.12609 66.3787C1.647 68.7039 0.664376 71.3076 0.23943 74.0276C-0.185515 76.7476 -0.0436789 79.5257 0.656105 82.1887C1.35589 84.8517 2.59863 87.3426 4.30691 89.5063C3.41218 90.6394 2.64267 91.8652 2.0117 93.1625L16.3421 100.579L1.0619 95.4705C-0.0110012 98.63 -0.276149 102.006 0.290447 105.294C0.857043 108.581 2.2375 111.676 4.3069 114.298C1.97196 117.255 0.519461 120.807 0.115474 124.548C-0.288513 128.289 0.372316 132.067 2.02241 135.452C3.6725 138.836 6.24525 141.69 9.44653 143.686C12.6478 145.682 16.3484 146.741 20.1252 146.741C23.902 146.741 27.6026 145.682 30.8038 143.686C34.0051 141.69 36.5779 138.836 38.2279 135.452C39.878 132.067 40.5389 128.289 40.1349 124.548C39.7309 120.807 38.2784 117.255 35.9435 114.298C38.7335 110.764 40.2503 106.398 40.2503 101.902C40.2503 97.4059 38.7335 93.0403 35.9435 89.5063Z" fill="#D0D0D0"/>
<path d="M2.37563e-05 101.902C-0.00692493 106.399 1.51067 110.767 4.30691 114.298C1.97197 117.255 0.519469 120.807 0.115482 124.548C-0.288505 128.289 0.372323 132.067 2.02241 135.452C3.67251 138.836 6.24526 141.69 9.44653 143.686C12.6478 145.682 16.3484 146.741 20.1252 146.741C23.902 146.741 27.6026 145.682 30.8038 143.686C34.0051 141.69 36.5779 138.836 38.228 135.452C39.878 132.067 40.5389 128.289 40.1349 124.548C39.7309 120.807 38.2784 117.255 35.9435 114.298C38.6408 110.886 2.37563e-05 99.6518 2.37563e-05 101.902Z" fill="#D0D0D0"/>
<path d="M35.9435 89.5063C36.5175 88.7783 37.0403 88.0117 37.5081 87.2118L26.4684 85.4056L38.4082 85.4941C39.5536 83.0115 40.1784 80.3222 40.2445 77.5907C40.3106 74.8592 39.8165 72.143 38.7925 69.6084L22.7739 77.8864L37.5468 67.0685C36.1628 64.686 34.3011 62.6128 32.0777 60.9783C29.8544 59.3437 27.3169 58.1828 24.6235 57.5677C21.9302 56.9527 19.1385 56.8967 16.4224 57.4034C13.7064 57.91 11.1242 58.9684 8.8366 60.5125C6.54905 62.0567 4.60518 64.0535 3.12609 66.3787C1.647 68.7039 0.664376 71.3076 0.23943 74.0276C-0.185515 76.7476 -0.0436789 79.5257 0.656105 82.1887C1.35589 84.8517 2.59863 87.3426 4.30691 89.5063C3.41218 90.6394 2.64267 91.8652 2.0117 93.1625L16.3421 100.579L1.0619 95.4705C-0.0110012 98.63 -0.276149 102.006 0.290447 105.294C0.857043 108.581 2.2375 111.676 4.3069 114.298C1.97196 117.255 0.519461 120.807 0.115474 124.548C-0.288513 128.289 0.372316 132.067 2.02241 135.452C3.6725 138.836 6.24525 141.69 9.44653 143.686C12.6478 145.682 16.3484 146.741 20.1252 146.741C23.902 146.741 27.6026 145.682 30.8038 143.686C34.0051 141.69 36.5779 138.836 38.2279 135.452C39.878 132.067 40.5389 128.289 40.1349 124.548C39.7309 120.807 38.2784 117.255 35.9435 114.298C38.7335 110.764 40.2503 106.398 40.2503 101.902C40.2503 97.4059 38.7335 93.0403 35.9435 89.5063Z" fill="#21B6A8"/>
<path opacity="0.1" d="M2.37563e-05 101.902C-0.00692493 106.399 1.51067 110.767 4.30691 114.298C1.97197 117.255 0.519469 120.807 0.115482 124.548C-0.288505 128.289 0.372323 132.067 2.02241 135.452C3.67251 138.836 6.24526 141.69 9.44653 143.686C12.6478 145.682 16.3484 146.741 20.1252 146.741C23.902 146.741 27.6026 145.682 30.8038 143.686C34.0051 141.69 36.5779 138.836 38.228 135.452C39.878 132.067 40.5389 128.289 40.1349 124.548C39.7309 120.807 38.2784 117.255 35.9435 114.298C38.6408 110.886 2.37563e-05 99.6518 2.37563e-05 101.902Z" fill="#717171"/>
<path d="M145.034 88.4064L135.048 98.3542L130.317 93.6411L128.475 95.476L135.042 102.018L146.876 90.2413L145.034 88.4064Z" fill="#21B6A8"/>
<path d="M176.821 65.7161L166.836 75.6639L162.104 70.9508L160.262 72.7857L166.829 79.3277L178.664 67.551L176.821 65.7161Z" fill="#21B6A8"/>
</g>
<defs>
<clipPath id="clip0_902_498">
<rect width="252" height="190" fill="white"/>
</clipPath>
</defs>
</svg>
